#N canvas 0 0 1362 709 12;
#X obj 262 469 rev3~, f 27;
#X obj 529 162 *~;
#X obj 526 304 +~;
#X obj 595 166 line~;
#X obj 507 612 dac~ 1 2;
#X obj 525 265 *~ 0.2;
#X msg 362 433 97;
#X obj 528 216 fold~;
#X obj 742 95 vsl 20 170 0 1 0 0 empty empty wave\ folding 0 -9 0 12 #fcfcfc #000000 #000000 0 1;
#X obj 865 502 delread4~ test;
#X obj 870 582 delwrite~ test 4000;
#X obj 859 91 vsl 20 170 0 300 0 0 empty empty delay\ time 0 -9 0 12 #fcfcfc #000000 #000000 0 1;
#X obj 860 299 line~;
#X msg 860 271 \$1 20;
#X obj 891 454 sig~ 3;
#X obj 950 370 noise~;
#X obj 950 395 lop~ 0.1;
#X obj 867 535 *~ 0.99;
#X obj 522 120 osc~ 4000;
#X msg 625 113 1 \, 0 10;
#X text 168 469 reverb unit;
#X obj 976 97 vsl 20 170 0 0.99 0 0 empty empty delay\ feedback 0 -9 0 12 #fcfcfc #000000 #000000 0 1;
#X floatatom 976 275 5 0 0 0 - - - 0;
#X obj 952 452 *~ 20000;
#X obj 951 422 lop~ 1;
#X obj 248 199 fold~;
#X obj 328 93 vsl 20 170 0 1 0 0 empty empty empty 0 -9 0 12 #fcfcfc #000000 #000000 0 1;
#X obj 249 139 osc~ 60;
#X obj 267 305 scope;
#X connect 0 0 4 0;
#X connect 0 1 4 1;
#X connect 1 0 7 0;
#X connect 2 0 0 0;
#X connect 2 0 4 0;
#X connect 2 0 4 1;
#X connect 2 0 0 1;
#X connect 3 0 1 1;
#X connect 5 0 2 0;
#X connect 5 0 10 0;
#X connect 6 0 0 2;
#X connect 6 0 0 3;
#X connect 7 0 5 0;
#X connect 8 0 7 1;
#X connect 9 0 4 0;
#X connect 9 0 4 1;
#X connect 9 0 17 0;
#X connect 11 0 13 0;
#X connect 12 0 9 0;
#X connect 13 0 12 0;
#X connect 14 0 9 0;
#X connect 15 0 16 0;
#X connect 16 0 24 0;
#X connect 17 0 10 0;
#X connect 18 0 1 0;
#X connect 19 0 3 0;
#X connect 21 0 17 1;
#X connect 21 0 22 0;
#X connect 23 0 9 0;
#X connect 24 0 23 0;
#X connect 25 0 28 0;
#X connect 26 0 25 1;
#X connect 27 0 25 0;
